<svg width="1363" height="376" viewBox="0 0 1363 376" fill="none" xmlns="http://www.w3.org/2000/svg">
<path d="M102.798 3.02063L140.549 186.942C141.153 189.358 139.341 191.774 136.623 191.774H119.711C117.899 191.774 116.389 190.264 115.785 188.452L104.61 133.789H72.5978C59.0075 133.789 60.8196 116.575 48.1353 116.575C41.1892 116.575 37.8671 124.125 37.2631 126.541L24.5789 188.452C24.2769 190.264 22.4648 191.774 20.6528 191.774H4.04247C1.32441 191.774 -0.487623 189.358 0.116389 186.942C0.116389 186.942 30.317 40.1673 30.317 39.2613C33.035 27.4831 39.0752 22.349 47.8333 22.349C57.4975 22.349 57.1955 12.9868 57.1955 12.9868C57.1955 -0.301449 68.0677 0.000570976 68.0677 0.000570976H98.8723C100.684 0.000570976 102.496 1.20858 102.798 3.02063ZM40.2832 111.743H100.08L82.262 25.0671C81.96 22.953 80.148 21.745 78.3359 21.745H62.0276C60.2156 21.745 58.7055 22.953 58.1015 25.0671L40.2832 111.743Z" fill="currentColor"/>
<path d="M298.312 90.9043C300.728 90.9043 302.54 92.7164 302.54 94.8304V148.285C302.54 159.46 293.782 169.728 282.608 169.124C275.963 168.822 272.641 172.748 272.641 179.694C272.641 183.318 270.527 191.774 259.957 191.774H195.026C182.04 191.774 171.469 180.902 171.469 167.916V41.6774C171.469 30.5031 180.53 22.349 191.704 22.349C197.744 22.349 201.066 18.4229 201.066 11.7788C201.066 8.15471 202.878 0.000570976 213.75 0.000570976H294.386C296.802 0.000570976 298.312 1.8126 298.312 3.92663V17.8189C298.312 19.933 296.802 21.745 294.386 21.745H210.73C202.878 21.745 196.234 28.0871 196.234 34.7312V161.876C196.234 166.104 199.556 169.728 204.086 169.728H262.977C270.829 169.728 277.473 163.386 277.775 156.742V115.669C277.775 113.253 275.963 111.743 273.547 111.743H240.931C238.515 111.743 237.005 109.931 237.005 107.515V94.8304C237.005 92.7164 238.515 90.9043 240.931 90.9043H298.312Z" fill="currentColor"/>
<path d="M450.57 0.000570976C463.858 0.000570976 474.428 10.5708 474.428 23.557V149.795C474.428 160.97 465.066 169.124 453.892 169.124C447.852 169.124 444.53 173.05 444.53 179.694C444.53 183.318 442.718 191.774 431.846 191.774H356.646C343.66 191.774 333.09 180.902 333.09 167.916V41.6774C333.09 30.5031 342.15 22.349 353.324 22.349C359.364 22.349 362.686 18.4229 362.686 11.7788C362.686 8.15471 364.8 0.000570976 375.37 0.000570976H450.57ZM449.664 156.742V29.5971C449.664 25.3691 446.04 21.745 441.51 21.745H372.35C364.498 21.745 357.854 28.0871 357.854 34.7312V161.876C357.854 166.104 361.176 169.728 365.706 169.728H435.168C442.718 169.728 449.362 163.386 449.664 156.742Z" fill="currentColor"/>
<path d="M618.889 87.2803C615.869 87.8843 615.265 91.8103 617.379 93.9244L632.479 109.025C633.687 110.233 634.291 111.743 634.291 113.253V187.546C634.291 189.962 632.479 191.774 630.365 191.774H613.453C611.339 191.774 609.527 189.962 609.527 187.546V115.065C609.527 110.837 605.902 107.213 601.674 107.213H565.736C551.843 107.213 553.051 89.6963 540.669 89.6963C533.723 89.6963 530.099 96.0384 530.099 101.173L529.495 187.546C529.495 189.962 527.683 191.774 525.569 191.774H508.959C506.542 191.774 505.032 189.962 505.032 187.546V42.8854C505.032 27.4831 514.093 22.349 525.267 22.349C531.307 22.349 534.629 18.4229 534.629 11.7788C534.629 8.15471 536.441 0.000570976 547.313 0.000570976H610.735C623.721 0.000570976 634.291 10.5708 634.291 23.557V64.3278C634.291 77.9181 627.647 84.8642 618.889 87.2803ZM609.829 70.6699V29.5971C609.829 25.3691 606.204 21.745 601.976 21.745H544.293C536.441 21.745 529.797 24.161 529.797 34.7312V59.7977L530.099 85.4682H598.05C604.392 85.4682 609.829 77.9181 609.829 70.6699Z" fill="currentColor"/>
<path d="M767.565 3.02063L805.316 186.942C805.92 189.358 804.108 191.774 801.39 191.774H784.478C782.666 191.774 781.156 190.264 780.552 188.452L769.377 133.789H737.365C723.774 133.789 725.586 116.575 712.902 116.575C705.956 116.575 702.634 124.125 702.03 126.541L689.346 188.452C689.044 190.264 687.232 191.774 685.42 191.774H668.809C666.091 191.774 664.279 189.358 664.883 186.942C664.883 186.942 695.084 40.1673 695.084 39.2613C697.802 27.4831 703.842 22.349 712.6 22.349C722.264 22.349 721.962 12.9868 721.962 12.9868C721.962 -0.301449 732.835 0.000570976 732.835 0.000570976H763.639C765.451 0.000570976 767.263 1.20858 767.565 3.02063ZM705.05 111.743H764.847L747.029 25.0671C746.727 22.953 744.915 21.745 743.103 21.745H726.794C724.982 21.745 723.472 22.953 722.868 25.0671L705.05 111.743Z" fill="currentColor"/>
<path d="M979.745 169.728C981.859 169.728 983.671 171.54 983.671 173.654V187.546C983.671 189.962 981.859 191.774 979.745 191.774H922.666C920.854 191.774 919.344 190.868 918.136 189.962L882.197 153.722C880.989 152.514 880.385 151.003 880.385 149.191V3.92663C880.385 1.5106 881.895 0.000570976 884.311 0.000570976H900.921C903.337 0.000570976 905.149 1.5106 905.149 3.92663V153.722C905.149 162.48 912.096 169.728 920.854 169.728H979.745Z" fill="currentColor"/>
<path d="M1186.12 0.000570976C1199.41 0.000570976 1209.98 10.5708 1209.98 23.557V187.546C1209.98 189.962 1208.17 191.774 1206.06 191.774H1189.14C1187.03 191.774 1185.22 189.962 1185.22 187.546V29.5971C1185.22 25.3691 1181.59 21.745 1177.37 21.745H1139.01C1131.16 21.745 1124.51 28.0871 1124.51 34.7312V187.546C1124.51 188.15 1124.21 188.754 1124.21 189.056C1123.91 189.66 1123.61 190.264 1123.31 190.566C1122.4 191.17 1121.49 191.774 1120.59 191.774H1103.68C1101.26 191.774 1099.75 189.962 1099.75 187.546V29.5971C1099.75 25.3691 1096.13 21.745 1091.6 21.745H1053.54C1045.69 21.745 1039.05 28.0871 1039.05 34.7312V187.546C1039.05 189.962 1037.23 191.774 1034.82 191.774H1018.21C1016.09 191.774 1014.28 189.962 1014.28 187.546V41.6774C1014.28 30.5031 1023.34 22.349 1034.52 22.349C1040.56 22.349 1043.88 18.4229 1043.88 11.7788C1043.88 8.15471 1045.99 0.000570976 1056.56 0.000570976H1097.64C1110.62 0.000570976 1107.9 21.443 1119.98 21.443C1129.65 21.443 1131.16 0.000570976 1142.03 0.000570976H1186.12Z" fill="currentColor"/>
<path d="M1253.18 64.9318C1244.42 55.5696 1240.49 50.1335 1240.49 41.6774C1240.49 30.5031 1249.55 22.349 1260.73 22.349C1266.77 22.349 1270.09 18.4229 1270.09 11.7788C1270.09 8.15471 1271.9 0.000570976 1282.77 0.000570976H1358.58C1360.99 0.000570976 1362.8 1.5106 1362.8 3.92663V17.8189C1362.8 19.933 1360.99 21.745 1358.58 21.745H1279.75C1271.9 21.745 1267.07 26.8791 1267.07 32.3152C1267.07 35.6373 1268.28 41.3754 1272.81 45.9055L1349.82 126.541C1358.58 135.903 1362.8 141.339 1362.8 149.795C1362.8 160.97 1353.44 169.124 1342.27 169.124C1336.23 169.124 1332.91 173.05 1332.91 179.694C1332.91 183.62 1331.09 191.774 1320.22 191.774H1244.42C1242.3 191.774 1240.49 189.962 1240.49 187.848V173.654C1240.49 171.54 1242.3 169.728 1244.42 169.728H1323.24C1331.09 169.728 1335.93 164.594 1335.93 159.158C1335.93 155.836 1334.72 150.097 1330.19 145.567L1253.18 64.9318Z" fill="currentColor"/>
<path d="M313.892 338.826C310.193 338.826 306.843 337.995 303.84 336.333C300.892 334.618 298.667 332.205 297.166 329.096L298.131 328.211V337.861H292.1V276.986H298.131V304.408L297.166 302.719C298.881 299.985 301.16 297.814 304.001 296.205C306.896 294.597 310.193 293.793 313.892 293.793C317.967 293.793 321.586 294.785 324.749 296.768C327.965 298.698 330.485 301.352 332.308 304.73C334.184 308.107 335.122 311.967 335.122 316.31C335.122 320.598 334.184 324.458 332.308 327.89C330.485 331.267 327.965 333.948 324.749 335.931C321.586 337.861 317.967 338.826 313.892 338.826ZM313.571 332.795C316.466 332.795 319.039 332.071 321.291 330.624C323.596 329.176 325.392 327.219 326.679 324.753C328.019 322.234 328.689 319.419 328.689 316.31C328.689 313.147 328.019 310.332 326.679 307.866C325.392 305.4 323.596 303.443 321.291 301.995C319.039 300.548 316.466 299.824 313.571 299.824C310.676 299.824 308.049 300.548 305.69 301.995C303.385 303.443 301.535 305.427 300.141 307.946C298.801 310.412 298.131 313.2 298.131 316.31C298.131 319.419 298.801 322.234 300.141 324.753C301.535 327.219 303.385 329.176 305.69 330.624C308.049 332.071 310.676 332.795 313.571 332.795Z" fill="currentColor"/>
<path d="M345.836 355.553C344.978 355.553 344.094 355.472 343.182 355.312C342.324 355.204 341.467 354.99 340.609 354.668V349.039C341.145 349.093 341.815 349.173 342.619 349.28C343.477 349.441 344.335 349.522 345.193 349.522C347.82 349.522 349.83 348.959 351.224 347.833C352.618 346.761 353.985 344.67 355.325 341.56L358.059 335.127L357.898 340.434L339.644 294.758H346.158L361.115 332.473H359.426L374.303 294.758H380.978L361.276 343.329C360.418 345.42 359.319 347.404 357.979 349.28C356.692 351.157 355.057 352.658 353.073 353.784C351.09 354.963 348.677 355.553 345.836 355.553Z" fill="currentColor"/>
<path fill-rule="evenodd" clip-rule="evenodd" d="M560.505 294.225C554.685 295.744 550.922 299.158 549.726 304.004C549.312 305.683 549.279 306.41 549.543 308.113C550.509 314.355 554.596 317.754 564.419 320.484C569.895 322.006 571.764 322.888 572.413 324.256C573.501 326.549 572.616 328.87 570.186 330.097C569.143 330.624 568.325 330.777 566.549 330.777C562.495 330.777 558.925 329.45 556.251 326.949L554.798 325.589L551.606 328.372C549.851 329.902 548.415 331.3 548.415 331.477C548.415 332.015 551.333 334.533 553.332 335.72C557.602 338.254 564.344 339.439 569.51 338.562C574.989 337.633 579.4 334.654 581.443 330.504C582.363 328.635 582.418 328.335 582.418 325.192C582.418 321.369 581.964 319.997 579.959 317.77C577.738 315.303 574.478 313.682 568.119 311.883C561.36 309.971 559.598 308.779 559.598 306.119C559.598 303.356 561.282 301.892 564.842 301.559C567.926 301.271 571.202 302.452 574.918 305.19L576.788 306.567L579.596 303.521L582.405 300.475L580.852 299.046C575.939 294.529 567.24 292.468 560.505 294.225ZM603.576 294.044C595.691 295.764 589.52 301.867 587.367 310.073C586.476 313.472 586.465 319.406 587.344 322.66C589.463 330.501 595.745 336.413 603.878 338.219C607.408 339.003 612.517 338.941 615.817 338.075C619.038 337.229 624.024 334.831 625.744 333.301L627.051 332.137L624.586 328.737C623.23 326.867 622.048 325.337 621.959 325.337C621.87 325.337 621.302 325.724 620.696 326.197C617.584 328.627 614.831 329.568 610.838 329.568C606.283 329.568 602.89 328.339 600.182 325.708C598.846 324.409 597.26 321.497 596.896 319.672L596.701 318.693L612.682 318.614L628.662 318.536L628.75 315.363C628.943 308.354 626.741 302.802 622.104 298.605C619.997 296.697 616.377 294.77 613.562 294.057C611.358 293.499 606.108 293.492 603.576 294.044ZM693.199 294.226C686.991 295.851 682.599 299.374 679.582 305.15C677.661 308.826 677.081 311.429 677.069 316.42C677.058 321.24 677.468 323.249 679.176 326.735C684.305 337.203 697.574 341.653 709.604 336.938C712.019 335.992 714.877 334.357 716.234 333.145L717.363 332.137L715.085 328.964C713.832 327.218 712.692 325.675 712.552 325.534C712.411 325.393 711.306 325.973 710.096 326.823C707.184 328.868 704.883 329.568 701.074 329.568C696.535 329.568 693.119 328.315 690.488 325.683C689.011 324.206 687.521 321.471 687.236 319.715L687.07 318.693L703.053 318.614L719.035 318.536L719.01 314.607C718.979 309.955 718.517 307.856 716.715 304.18C714.381 299.419 709.325 295.413 703.935 294.055C701.33 293.398 696.038 293.482 693.199 294.226ZM745.633 294.166C742.892 294.957 739.699 296.774 737.807 298.621L736.112 300.276L736.108 298.071C736.101 294.225 736.522 294.507 730.786 294.507H725.832L725.909 316.194L725.987 337.88L731.038 337.963L736.09 338.046L736.177 323.908L736.264 309.771L737.112 308.044C738.806 304.593 742.093 302.668 746.289 302.668C749.338 302.668 750.813 303.151 752.3 304.636C754.486 306.819 754.55 307.358 754.55 323.77V338.031H759.705H764.86L764.748 321.936C764.651 308.072 764.567 305.613 764.138 304.193C761.984 297.069 757.263 293.574 749.865 293.627C748.526 293.636 746.638 293.877 745.633 294.166ZM795.519 293.929C791.937 294.466 788.442 296.105 785.878 298.448L784.17 300.009V297.258V294.507H779.183H774.196V325.337V356.166H779.331H784.465L784.544 344.707L784.624 333.247L786.437 334.626C789.994 337.332 793.795 338.636 798.122 338.636C801.585 338.636 803.449 338.226 806.386 336.817C810.417 334.884 813.888 331.219 815.873 326.802C818.525 320.897 818.696 312.651 816.29 306.597C813.888 300.552 808.698 295.769 803.039 294.387C800.574 293.785 797.662 293.607 795.519 293.929ZM844.009 294.282C841.413 295.176 838.356 297.392 836.553 299.688L835.099 301.54L835.014 298.024L834.929 294.507H829.951H824.974V316.269V338.031H830.112H835.25V325.735C835.25 312.01 835.338 311.253 837.237 308.637C839.8 305.106 844.198 303.649 848.426 304.932C849.242 305.179 850.015 305.383 850.143 305.385C850.271 305.387 850.339 302.77 850.294 299.57L850.212 293.752L848.096 293.678C846.54 293.623 845.459 293.783 844.009 294.282ZM869.707 294.081C868.626 294.312 866.463 295.131 864.9 295.9C862.626 297.02 861.599 297.761 859.762 299.606C855.172 304.217 853.083 309.524 853.083 316.579C853.083 320.61 853.716 323.419 855.389 326.825C857.842 331.818 862.59 335.875 867.98 337.584C874.493 339.65 881.206 339.126 887.712 336.045C889.947 334.986 893.283 332.69 893.283 332.21C893.283 331.833 888.657 325.369 888.374 325.351C888.25 325.343 887.516 325.82 886.741 326.412C883.693 328.739 881.183 329.559 877.1 329.565C872.622 329.571 869.619 328.525 866.954 326.032C865.23 324.42 864.211 322.773 863.544 320.521C863.276 319.619 863.058 318.837 863.058 318.783C863.058 318.731 870.283 318.687 879.114 318.687H895.169L895.019 314.078C894.899 310.392 894.735 309.075 894.199 307.504C892.996 303.975 891.784 302.046 889.066 299.335C886.189 296.467 883.469 294.89 879.984 294.071C877.559 293.501 872.396 293.507 869.707 294.081ZM921.996 294.077C919.252 294.798 916.197 296.478 914.043 298.452L912.022 300.304V297.406V294.507H907.035H902.048V316.269V338.031H907.175H912.302L912.389 323.599C912.47 310.125 912.513 309.096 913.046 308.109C914.132 306.094 915.328 304.878 917.222 303.863C918.93 302.947 919.426 302.831 922.072 302.72C924.766 302.608 925.157 302.665 926.619 303.38C928.351 304.227 929.304 305.3 930.092 307.289C930.534 308.403 930.609 310.397 930.695 323.297L930.793 338.031H935.937H941.081L940.966 322.39C940.856 307.473 940.82 306.639 940.196 304.387C938.162 297.045 933.485 293.549 925.794 293.62C924.62 293.631 922.911 293.837 921.996 294.077ZM963.713 294.226C956.011 296.242 950.401 301.9 948.235 309.835C947.372 312.998 947.307 319.684 948.111 322.617C949.791 328.743 953.778 333.532 959.626 336.445C964.644 338.945 970.786 339.499 976.855 337.999C979.813 337.268 984.865 334.819 986.597 333.277L987.877 332.137L985.599 328.964C984.346 327.218 983.206 325.675 983.066 325.534C982.925 325.393 981.82 325.973 980.61 326.823C977.74 328.838 975.384 329.568 971.748 329.568C967.126 329.568 963.619 328.301 961.002 325.683C959.509 324.19 958.162 321.72 957.807 319.823L957.596 318.693L973.572 318.614L989.549 318.536L989.524 314.607C989.493 309.955 989.031 307.856 987.229 304.18C984.895 299.419 979.839 295.413 974.449 294.055C971.844 293.398 966.552 293.482 963.713 294.226ZM1065.49 293.928C1062.53 294.627 1058.61 297.417 1056.45 300.371L1055.59 301.55V298.028V294.507H1050.45H1045.31V316.269V338.031H1050.45H1055.59V326.285C1055.59 319.603 1055.72 313.841 1055.9 312.921C1056.54 309.545 1058.41 307.023 1061.4 305.505C1063.82 304.276 1066.55 304.196 1070.02 305.252L1070.7 305.459V299.53V293.601L1068.66 293.631C1067.54 293.648 1066.11 293.781 1065.49 293.928ZM630.627 294.697C630.627 294.871 645.802 331.025 648.066 336.244L648.841 338.031L652.655 338.025L656.469 338.019L665.235 318.167C670.056 307.248 674.37 297.455 674.821 296.404L675.643 294.494L670.182 294.576L664.721 294.658L658.933 309.389C655.75 317.491 653.077 324.119 652.994 324.119C652.91 324.118 650.325 317.49 647.248 309.388L641.654 294.658L636.14 294.576C633.108 294.531 630.627 294.585 630.627 294.697ZM996.417 310.3C996.518 325.863 996.529 326.123 997.219 328.208C998.196 331.162 999.394 333.145 1001.28 334.926C1004.1 337.595 1007.24 338.755 1011.61 338.742C1016.34 338.727 1020.09 337.182 1023.62 333.796L1025.67 331.828V334.929V338.031H1030.66H1035.64V316.269V294.507H1030.5H1025.37V308.376C1025.37 324.331 1025.37 324.29 1022.89 326.999C1020.88 329.204 1019.03 329.973 1015.69 329.985C1012.57 329.995 1010.85 329.286 1009.06 327.249C1006.78 324.661 1006.8 324.829 1006.7 308.789L1006.6 294.507H1001.46H996.315L996.417 310.3ZM604.612 303.065C601.54 303.93 599.136 305.968 597.796 308.845C596.487 311.656 595.611 311.433 607.958 311.433C616.763 311.433 618.839 311.357 618.839 311.035C618.839 309.693 617.789 307.41 616.527 306.005C614.362 303.597 612.68 302.872 609.016 302.765C607.195 302.712 605.445 302.831 604.612 303.065ZM695.232 302.996C691.695 303.83 688.865 306.449 687.669 309.998L687.184 311.433H698.222H709.26L709.062 310.451C708.429 307.307 705.96 304.4 702.974 303.283C701.206 302.621 697.417 302.481 695.232 302.996ZM793.846 303.014C789.57 303.722 786.169 306.878 784.743 311.461C784.057 313.665 783.977 318.088 784.582 320.35C785.587 324.108 787.989 327.17 791.063 328.61C792.601 329.331 793.138 329.417 796.109 329.417C800.105 329.417 801.415 328.933 803.978 326.51C808.205 322.512 809.3 315.279 806.564 309.433C805.433 307.016 803.938 305.396 801.772 304.242C800.302 303.458 796.911 302.585 795.807 302.706C795.641 302.724 794.758 302.862 793.846 303.014ZM870.463 303.267C867.916 304.108 865.884 305.758 864.688 307.957C864.146 308.955 863.61 310.145 863.498 310.602L863.294 311.433H874.208H885.122L885.119 310.602C885.115 309.37 883.833 306.839 882.577 305.584C881.971 304.978 880.765 304.115 879.898 303.667C877.739 302.553 873.211 302.361 870.463 303.267ZM965.742 302.997C962.096 303.856 959.486 306.339 958.099 310.271L957.689 311.433H968.731H979.774L979.576 310.451C978.943 307.307 976.474 304.4 973.488 303.283C971.719 302.621 967.931 302.481 965.742 302.997Z" fill="currentColor"/>
<path d="M461.37 303.119V279.923V256.726H466.811H472.251V274.678C472.251 292.058 472.231 292.696 471.616 294.702C470.75 297.531 469.282 299.849 467.024 301.955C463.632 305.12 459.858 306.477 455.174 306.219C452.017 306.045 449.616 305.286 447.176 303.689C446.251 303.084 439.962 297.072 433.11 290.243L420.718 277.892L424.572 274.035L428.425 270.179L444.898 286.649L461.37 303.119Z" fill="#0165F6"/>
<path d="M407.268 321.71V316.247V310.784L420.491 310.909C432.689 311.025 433.942 311.085 436.646 311.69C455.357 315.876 469.348 330.802 471.924 349.326C472.114 350.69 472.251 356.741 472.251 363.744V375.813H466.811H461.37V352.616V329.419L444.972 345.816L428.574 362.212L424.721 358.359L420.869 354.506L437.265 338.108L453.661 321.71H430.464H407.268Z" fill="#0165F6"/>
<path d="M477.244 323.36C478.751 317.441 483.502 312.658 489.26 311.263C490.437 310.978 495.404 310.874 508.748 310.855L526.656 310.829V316.269V321.71H503.308H479.961L496.431 338.182L512.902 354.655L509.042 358.509L505.182 362.363L492.553 349.668C481.292 338.349 479.803 336.741 478.814 334.827C476.864 331.05 476.312 327.02 477.244 323.36Z" fill="#0165F6"/>
<path d="M493.77 284.578C491.439 279.524 494.279 273.369 499.757 271.601C501.288 271.107 504.514 271.339 506.146 272.061C508.036 272.897 509.915 274.659 510.885 276.504C511.584 277.833 511.69 278.393 511.69 280.755C511.69 283.117 511.585 283.673 510.888 284.986C509.856 286.93 508.161 288.555 506.255 289.425C504.069 290.424 500.486 290.409 498.42 289.392C496.426 288.411 494.726 286.65 493.77 284.578Z" fill="#E74D79"/>
</svg>
